<svg xmlns="http://www.w3.org/2000/svg" width="11" height="14.001" viewBox="0 0 11 14.001">
  <path id="Icon_color" data-name="Icon color" d="M5.763,14H5.306a.688.688,0,0,1-.651-.477L4.3,12.447a4.89,4.89,0,0,0-1.845-2.224A5.227,5.227,0,0,1,0,5.6,5.557,5.557,0,0,1,5.5,0,5.557,5.557,0,0,1,11,5.6a5.241,5.241,0,0,1-2.423,4.617,4.811,4.811,0,0,0-1.813,2.229l-.35,1.078A.688.688,0,0,1,5.763,14ZM5.5,3.5a2.1,2.1,0,0,0,0,4.2,2.031,2.031,0,0,0,1.458-.615,2.106,2.106,0,0,0,.6-1.485A2.084,2.084,0,0,0,5.5,3.5Z" fill="#cb0e31"/>
</svg>
