<svg xmlns="http://www.w3.org/2000/svg" width="14" height="15" viewBox="0 0 14 15">
  <path id="Icon_color" data-name="Icon color" d="M12.445,15H1.555A1.569,1.569,0,0,1,0,13.421V3.158A1.569,1.569,0,0,1,1.555,1.579h.778V.4A.393.393,0,0,1,2.722,0H3.5a.393.393,0,0,1,.389.4V1.579h6.222V.4A.393.393,0,0,1,10.5,0h.778a.393.393,0,0,1,.389.4V1.579h.778A1.569,1.569,0,0,1,14,3.158V13.421A1.569,1.569,0,0,1,12.445,15ZM1.555,4.737v8.684H12.445V4.737Zm5.834,6.316H6.611a.392.392,0,0,1-.389-.4V9.868a.392.392,0,0,1,.389-.4h.778a.392.392,0,0,1,.389.4v.789A.392.392,0,0,1,7.389,11.053Zm-3.111,0H3.5a.393.393,0,0,1-.389-.4V9.868a.393.393,0,0,1,.389-.4h.778a.393.393,0,0,1,.389.4v.789A.393.393,0,0,1,4.278,11.053ZM10.5,7.895H9.722A.392.392,0,0,1,9.333,7.5V6.71a.392.392,0,0,1,.389-.394H10.5a.392.392,0,0,1,.389.394V7.5A.392.392,0,0,1,10.5,7.895Zm-3.111,0H6.611A.392.392,0,0,1,6.222,7.5V6.71a.392.392,0,0,1,.389-.394h.778a.392.392,0,0,1,.389.394V7.5A.392.392,0,0,1,7.389,7.895Zm-3.111,0H3.5A.392.392,0,0,1,3.111,7.5V6.71A.392.392,0,0,1,3.5,6.316h.778a.392.392,0,0,1,.389.394V7.5A.392.392,0,0,1,4.278,7.895Z" fill="#cd29a2"/>
</svg>
