<svg xmlns="http://www.w3.org/2000/svg" width="32.015" height="32.015" viewBox="0 0 32.015 32.015">
  <g id="Group_2177" data-name="Group 2177" transform="translate(-117 -263.645)">
    <g id="noun-invite-3857898" transform="translate(117.5 264.145)" opacity="0.4">
      <path id="Path_2894" data-name="Path 2894" d="M87,.522a2.425,2.425,0,0,0-2.975.006L70.188,11.736a.485.485,0,0,0-.18.377V29.575a1.456,1.456,0,0,0,1.454,1.455H99.569a1.456,1.456,0,0,0,1.454-1.455V12.113a.485.485,0,0,0-.18-.377Zm13.054,29.052a.486.486,0,0,1-.013.107L86.99,19.676a2.427,2.427,0,0,0-2.948,0L70.99,29.682a.483.483,0,0,1-.013-.107v-1.1L82.5,19.639,71.4,12,84.626,1.288A1.449,1.449,0,0,1,86.4,1.282L99.629,12,88.535,19.639l11.519,8.782Z" transform="translate(-70.008 -0.015)" fill="#bebebe" stroke="#8e8e8e" stroke-width="1"/>
      <path id="Path_2896" data-name="Path 2896" d="M612.985,0a.485.485,0,0,0-.485.485V5.331a.485.485,0,0,0,.969,0V.485A.485.485,0,0,0,612.985,0Z" transform="translate(-582.455)" fill="#bebebe" stroke="#8e8e8e" stroke-width="1"/>
      <path id="Path_2897" data-name="Path 2897" d="M578.469,2.423V.485a.485.485,0,0,0-.969,0V2.423a.485.485,0,0,0,.969,0Z" transform="translate(-549.393)" fill="#bebebe" stroke="#8e8e8e" stroke-width="1"/>
      <path id="Path_2898" data-name="Path 2898" d="M70.485,5.815a.485.485,0,0,0,.485-.485V.485a.485.485,0,1,0-.969,0V5.331A.485.485,0,0,0,70.485,5.815Z" transform="translate(-70)" fill="#bebebe" stroke="#8e8e8e" stroke-width="1"/>
      <path id="Path_2899" data-name="Path 2899" d="M105.969,2.423V.485a.485.485,0,1,0-.969,0V2.423a.485.485,0,1,0,.969,0Z" transform="translate(-103.062)" fill="#bebebe" stroke="#8e8e8e" stroke-width="1"/>
    </g>
    <g id="Group_2117" data-name="Group 2117" transform="translate(141.076 283.38)">
      <line id="Line_10" data-name="Line 10" x1="1.867" y2="1.867" transform="translate(0)" fill="none" stroke="#fff" stroke-linecap="round" stroke-width="2"/>
      <line id="Line_11" data-name="Line 11" x2="1.867" y2="1.867" transform="translate(0)" fill="none" stroke="#fff" stroke-linecap="round" stroke-width="2"/>
    </g>
    <g id="Group_2118" data-name="Group 2118" transform="translate(123.071 283.38)">
      <line id="Line_13" data-name="Line 13" x1="1.867" y2="1.867" transform="translate(0)" fill="none" stroke="#fff" stroke-linecap="round" stroke-width="2"/>
      <line id="Line_12" data-name="Line 12" x2="1.867" y2="1.867" transform="translate(0)" fill="none" stroke="#fff" stroke-linecap="round" stroke-width="2"/>
    </g>
    <path id="Path_2904" data-name="Path 2904" d="M-4522.967,1711.4s6.811-2.1,10.1.383" transform="translate(4650.922 -1419.762)" fill="none" stroke="#fff" stroke-linecap="round" stroke-width="2"/>
  </g>
</svg>
