<svg xmlns="http://www.w3.org/2000/svg" width="14" height="14" viewBox="0 0 14 14">
  <path id="Icon_color" data-name="Icon color" d="M7,14a7,7,0,1,1,7-7A7.008,7.008,0,0,1,7,14ZM5.25,8.225a.35.35,0,0,0-.35.35V9.1a1.4,1.4,0,0,0,1.4,1.4v.35a.351.351,0,0,0,.35.35h.7a.35.35,0,0,0,.35-.35V10.5A1.4,1.4,0,0,0,9.1,9.1V8.533a1.394,1.394,0,0,0-.511-1.078l-2.4-1.981a.155.155,0,0,1-.063-.133V4.725h1.75v.7a.351.351,0,0,0,.35.35H8.75a.35.35,0,0,0,.35-.35V4.9A1.4,1.4,0,0,0,7.7,3.5V3.15a.35.35,0,0,0-.35-.35h-.7a.351.351,0,0,0-.35.35V3.5A1.4,1.4,0,0,0,4.9,4.9v.567a1.394,1.394,0,0,0,.511,1.078l2.4,1.981a.155.155,0,0,1,.063.133v.616H6.125v-.7a.35.35,0,0,0-.35-.35Z" fill="#282e71"/>
</svg>
