<svg xmlns="http://www.w3.org/2000/svg" width="29" height="29" viewBox="0 0 29 29">
  <g id="Group_2315" data-name="Group 2315" transform="translate(-267 -292)">
    <rect id="Rectangle_1414" data-name="Rectangle 1414" width="29" height="29" rx="8" transform="translate(267 292)" fill="#f1f1f1"/>
    <path id="Subtraction_7" data-name="Subtraction 7" d="M3465.686-1207.962a.674.674,0,0,1-.335-.089.685.685,0,0,1-.35-.6v-10.293a2.061,2.061,0,0,1,2.059-2.059h9.606a2.051,2.051,0,0,1,1.4.551l-4.568,4.564v-2.245a.184.184,0,0,0-.184-.185h-.369a.185.185,0,0,0-.185.185v3.138a.277.277,0,0,0,.073.189l.1.1a.279.279,0,0,0,.2.081h3.136a.185.185,0,0,0,.185-.184v-.369a.185.185,0,0,0-.185-.184h-2.248l4.491-4.491a2.042,2.042,0,0,1,.212.912v6.862a2.061,2.061,0,0,1-2.058,2.059h-7.2a.683.683,0,0,0-.351.1l-3.081,1.865A.681.681,0,0,1,3465.686-1207.962Z" transform="translate(-3190.361 1520.981)" fill="#f68724"/>
  </g>
</svg>
