<svg xmlns="http://www.w3.org/2000/svg" width="12.447" height="11.825" viewBox="0 0 12.447 11.825">
  <path id="Subtraction_5" data-name="Subtraction 5" d="M3465.622-1209.175a.611.611,0,0,1-.3-.081.621.621,0,0,1-.318-.541v-9.336a1.87,1.87,0,0,1,1.868-1.868h8.713a1.861,1.861,0,0,1,1.271.5l-4.143,4.139v-2.036a.167.167,0,0,0-.167-.167h-.335a.168.168,0,0,0-.167.167v2.846a.251.251,0,0,0,.067.171l.09.09a.253.253,0,0,0,.178.074h2.845a.168.168,0,0,0,.167-.167v-.335a.168.168,0,0,0-.167-.167h-2.038l4.073-4.073a1.853,1.853,0,0,1,.192.827v6.224a1.869,1.869,0,0,1-1.866,1.867h-6.528a.62.62,0,0,0-.318.088l-2.794,1.692A.617.617,0,0,1,3465.622-1209.175Z" transform="translate(-3465 1221)" fill="#282e71"/>
</svg>
