<svg xmlns="http://www.w3.org/2000/svg" width="12.447" height="11.825" viewBox="0 0 12.447 11.825">
  <path id="Subtraction_6" data-name="Subtraction 6" d="M3465.622-1209.175a.611.611,0,0,1-.3-.081.621.621,0,0,1-.318-.541v-9.336a1.87,1.87,0,0,1,1.868-1.868h8.713a1.878,1.878,0,0,1,1.845,1.585l-.083-.084a.256.256,0,0,0-.177-.074h-2.846a.168.168,0,0,0-.167.167v.335a.168.168,0,0,0,.167.167h2.039l-4.164,4.165a.167.167,0,0,0-.05.119.169.169,0,0,0,.05.119l.234.234a.17.17,0,0,0,.119.049.166.166,0,0,0,.119-.049l4.165-4.162v2.036a.168.168,0,0,0,.167.167h.334a.168.168,0,0,0,.115-.045v3.361a1.869,1.869,0,0,1-1.866,1.867h-6.528a.619.619,0,0,0-.318.088l-2.794,1.692A.617.617,0,0,1,3465.622-1209.175Z" transform="translate(-3465 1221)" fill="#282e71"/>
</svg>
