<svg xmlns="http://www.w3.org/2000/svg" width="12.447" height="11.825" viewBox="0 0 12.447 11.825">
  <path id="Path_2909" data-name="Path 2909" d="M12.58,3H3.867A1.867,1.867,0,0,0,2,4.867V14.2a.622.622,0,0,0,.94.535l2.794-1.693a.622.622,0,0,1,.342-.087h6.5a1.867,1.867,0,0,0,1.867-1.867V4.867A1.867,1.867,0,0,0,12.58,3ZM5.734,8.6a.622.622,0,1,1,.622-.622A.622.622,0,0,1,5.734,8.6Zm2.489,0a.622.622,0,1,1,.622-.622A.622.622,0,0,1,8.224,8.6Zm2.489,0a.622.622,0,1,1,.622-.622A.622.622,0,0,1,10.713,8.6Z" transform="translate(-2 -3)" fill="#282e71"/>
</svg>
